<?xml version="1.0" encoding="UTF-8"?>
<!DOCTYPE svg PUBLIC "-//W3C//DTD SVG 1.1//EN" "http://www.w3.org/Graphics/SVG/1.1/DTD/svg11.dtd">
<svg xmlns="http://www.w3.org/2000/svg" version="1.1" width="50px" height="50px" style="shape-rendering:geometricPrecision; text-rendering:geometricPrecision; image-rendering:optimizeQuality; fill-rule:evenodd; clip-rule:evenodd" xmlns:xlink="http://www.w3.org/1999/xlink">
<g><path style="opacity:0.008" fill="#1d7e2a" d="M 34.5,0.5 C 34.5,0.166667 34.5,-0.166667 34.5,-0.5C 35.5,-0.5 36.5,-0.5 37.5,-0.5C 37.8333,0.166667 38.1667,0.833333 38.5,1.5C 37.8333,1.5 37.1667,1.5 36.5,1.5C 36.1583,0.661754 35.4916,0.32842 34.5,0.5 Z"/></g>
<g><path style="opacity:0.012" fill="#1b8537" d="M 10.5,2.5 C 9.83333,2.5 9.5,2.83333 9.5,3.5C 7.02482,3.2533 7.02482,2.58664 9.5,1.5C 10.1067,1.62358 10.44,1.95691 10.5,2.5 Z"/></g>
<g><path style="opacity:0.008" fill="#17781f" d="M 38.5,2.5 C 38.5,2.16667 38.5,1.83333 38.5,1.5C 41.4596,2.03204 41.7929,2.69871 39.5,3.5C 39.5,2.83333 39.1667,2.5 38.5,2.5 Z"/></g>
<g><path style="opacity:0.016" fill="#1b8d2e" d="M 47.5,10.5 C 47.1667,10.5 46.8333,10.5 46.5,10.5C 46.5,9.83333 46.1667,9.5 45.5,9.5C 46.3013,7.20706 46.968,7.5404 47.5,10.5 Z"/></g>
<g><path style="opacity:0.012" fill="#1a8337" d="M 47.5,10.5 C 48.1667,10.8333 48.8333,11.1667 49.5,11.5C 49.5,12.5 49.5,13.5 49.5,14.5C 49.1667,14.5 48.8333,14.5 48.5,14.5C 48.6716,13.5084 48.3382,12.8417 47.5,12.5C 47.5,11.8333 47.5,11.1667 47.5,10.5 Z"/></g>
<g><path style="opacity:0.008" fill="#119b22" d="M -0.5,12.5 C 0.338246,12.8417 0.67158,13.5084 0.5,14.5C 0.166667,14.5 -0.166667,14.5 -0.5,14.5C -0.5,13.8333 -0.5,13.1667 -0.5,12.5 Z"/></g>
<g><path style="opacity:0.012" fill="#00aa54" d="M 48.5,34.5 C 48.8333,34.5 49.1667,34.5 49.5,34.5C 49.5,35.1667 49.5,35.8333 49.5,36.5C 49.1667,36.5 48.8333,36.5 48.5,36.5C 48.5,35.8333 48.5,35.1667 48.5,34.5 Z"/></g>
<g><path style="opacity:0.024" fill="#1fb73c" d="M -0.5,34.5 C -0.166667,34.5 0.166667,34.5 0.5,34.5C 0.5,35.1667 0.5,35.8333 0.5,36.5C 0.166667,36.5 -0.166667,36.5 -0.5,36.5C -0.5,35.8333 -0.5,35.1667 -0.5,34.5 Z"/></g>
<g><path style="opacity:0.012" fill="#22b04e" d="M 0.5,36.5 C 0.833333,36.5 1.16667,36.5 1.5,36.5C 1.16667,39.1667 0.833333,39.1667 0.5,36.5 Z"/></g>
<g><path style="opacity:0.016" fill="#38d335" d="M 47.5,36.5 C 47.8333,36.5 48.1667,36.5 48.5,36.5C 48.6716,37.4916 48.3382,38.1583 47.5,38.5C 47.5,37.8333 47.5,37.1667 47.5,36.5 Z"/></g>
<g><path style="opacity:0.008" fill="#187424" d="M 46.5,38.5 C 46.8333,38.5 47.1667,38.5 47.5,38.5C 46.968,41.4596 46.3013,41.7929 45.5,39.5C 46.1667,39.5 46.5,39.1667 46.5,38.5 Z"/></g>
<g><path style="opacity:0.953" fill="#29bf49" d="M 17.5,-0.5 C 22.1667,-0.5 26.8333,-0.5 31.5,-0.5C 32.209,0.403972 33.209,0.737305 34.5,0.5C 34.8417,1.33825 35.5084,1.67158 36.5,1.5C 36.8417,2.33825 37.5084,2.67158 38.5,2.5C 39.1667,2.5 39.5,2.83333 39.5,3.5C 41.8333,5.16667 43.8333,7.16667 45.5,9.5C 46.1667,9.5 46.5,9.83333 46.5,10.5C 46.3284,11.4916 46.6618,12.1583 47.5,12.5C 47.3284,13.4916 47.6618,14.1583 48.5,14.5C 48.2627,15.791 48.596,16.791 49.5,17.5C 49.5,22.1667 49.5,26.8333 49.5,31.5C 48.596,32.209 48.2627,33.209 48.5,34.5C 47.6618,34.8417 47.3284,35.5084 47.5,36.5C 46.6618,36.8417 46.3284,37.5084 46.5,38.5C 45.8333,38.5 45.5,38.8333 45.5,39.5C 43.4032,42.0527 41.0698,44.386 38.5,46.5C 37.5084,46.3284 36.8417,46.6618 36.5,47.5C 35.5084,47.3284 34.8417,47.6618 34.5,48.5C 33.5084,48.3284 32.8417,48.6618 32.5,49.5C 27.1667,49.5 21.8333,49.5 16.5,49.5C 16.1583,48.6618 15.4916,48.3284 14.5,48.5C 9.09219,45.6353 4.75886,41.6353 1.5,36.5C 1.67158,35.5084 1.33825,34.8417 0.5,34.5C 0.67158,33.5084 0.338246,32.8417 -0.5,32.5C -0.5,27.1667 -0.5,21.8333 -0.5,16.5C 0.338246,16.1583 0.67158,15.4916 0.5,14.5C 3.15185,10.5181 6.15185,6.85144 9.5,3.5C 10.1667,3.5 10.5,3.16667 10.5,2.5C 13.0177,1.73623 15.351,0.73623 17.5,-0.5 Z"/></g>
<g><path style="opacity:1" fill="#7edf95" d="M 16.5,1.5 C 40.66,-0.177571 50.4933,10.8224 46,34.5C 39.4556,46.0253 29.6223,50.1919 16.5,47C 3.51595,40.861 -1.31738,30.6944 2,16.5C 5.02145,9.64677 9.85478,4.64677 16.5,1.5 Z"/></g>
<g><path style="opacity:1" fill="#eac865" d="M 24.5,30.5 C 27.9067,30.1253 28.4067,31.1253 26,33.5C 24.1217,35.0429 22.6217,36.8762 21.5,39C 18.3333,39.8333 17.1667,38.6667 18,35.5C 20.3256,33.9343 22.4922,32.2676 24.5,30.5 Z"/></g>
<g><path style="opacity:1" fill="#e6c665" d="M 31.5,25.5 C 32.4972,25.4701 33.1639,25.9701 33.5,27C 34.2446,29.4783 34.9112,31.9783 35.5,34.5C 34.9763,37.3962 33.4763,38.0628 31,36.5C 30.4213,32.7973 30.588,29.1306 31.5,25.5 Z"/></g>
<g><path style="opacity:1" fill="#e1c363" d="M 8.5,24.5 C 13.0128,24.588 17.0128,26.088 20.5,29C 16.8333,29.6667 13.1667,29.6667 9.5,29C 7.45232,27.7741 7.11899,26.2741 8.5,24.5 Z"/></g>
<g><path style="opacity:1" fill="#e5c564" d="M 28.5,18.5 C 32.1817,18.3347 35.8484,18.5014 39.5,19C 41.0628,21.4763 40.3962,22.9763 37.5,23.5C 33.6326,23.0739 30.6326,21.4072 28.5,18.5 Z"/></g>
<g><path style="opacity:1" fill="#f1cc67" d="M 15.5,10.5 C 16.8221,10.33 17.9887,10.6634 19,11.5C 20.564,25.3122 19.064,25.8122 14.5,13C 14.7432,12.0979 15.0766,11.2646 15.5,10.5 Z"/></g>
<g><path style="opacity:1" fill="#e7c664" d="M 28.5,8.5 C 31.6802,8.17624 32.8469,9.50957 32,12.5C 22.1186,20.7844 20.9519,19.4511 28.5,8.5 Z"/></g>
<g><path style="opacity:0.02" fill="#33cc32" d="M 38.5,46.5 C 39.8333,47.1667 39.8333,47.1667 38.5,46.5 Z"/></g>
<g><path style="opacity:0.012" fill="#22b04e" d="M 36.5,48.5 C 36.5,48.1667 36.5,47.8333 36.5,47.5C 37.1667,47.5 37.8333,47.5 38.5,47.5C 38.1583,48.3382 37.4916,48.6716 36.5,48.5 Z"/></g>
<g><path style="opacity:0.008" fill="#119b22" d="M 12.5,49.5 C 12.8417,48.6618 13.5084,48.3284 14.5,48.5C 14.5,48.8333 14.5,49.1667 14.5,49.5C 13.8333,49.5 13.1667,49.5 12.5,49.5 Z"/></g>
<g><path style="opacity:0.024" fill="#1fb73c" d="M 34.5,49.5 C 34.5,49.1667 34.5,48.8333 34.5,48.5C 35.1667,48.5 35.8333,48.5 36.5,48.5C 36.5,48.8333 36.5,49.1667 36.5,49.5C 35.8333,49.5 35.1667,49.5 34.5,49.5 Z"/></g>
</svg>
